<svg xmlns="http://www.w3.org/2000/svg" viewBox="0 0 640 640"><path d="m470.6 114.4c-33.5 0-65 16.1-84.6 43.1l-42.2 58.3c-5.5 7.6-14.3 12.1-23.8 12.1s-18.3-4.5-23.8-12.1l-42.2-58.3c-19.6-27.1-51.1-43.1-84.6-43.1-57.6 0-104.3 46.7-104.3 104.3s39.2 120.6 83.5 174.4c50.4 61.3 112 115.2 154.3 147.4 3.9 2.9 9.7 5.1 17.2 5.1s13.2-2.2 17.2-5.1c42.3-32.2 103.9-86.3 154.3-147.4 44.4-53.8 83.5-113.2 83.5-174.4s-46.7-104.3-104.3-104.3zm-132.2 8.7c30.6-42.4 79.9-67.5 132.2-67.5 90.1 0 163.1 73 163.1 163.1s-52.6 158-96.9 211.8c-54 65.7-119.3 122.7-164 156.8-15.1 11.5-33.7 17.3-52.8 17.3s-37.7-5.8-52.8-17.3c-44.7-34.1-109.9-91.1-164-156.6-44.4-53.9-97-128-97-212s73.1-163.2 163.2-163.2 101.6 25.1 132.2 67.5l18.4 25.4 18.4-25.4z"/></svg>